<svg xmlns="http://www.w3.org/2000/svg" viewBox="0 0 487.68 487.68" fill="#fff" ><path d="M378 282.35c-56.2-18.36-79.57-41.19-79.57-41.19l-1.88 1.8c-16.69 15.7-35.15 24.94-51.96 24.94H243c-16.82 0-35.27-9.24-51.96-24.94l-1.89-1.8S165.8 264 109.6 282.35c-82.96 30.99-58.05 157.12-58.08 158.1 2.62 14.04 4.14 18.87 5.47 19.41 83.31 37.1 290.32 37.1 373.63 0 1.33-.54 2.85-5.37 5.47-19.42-.03-.97 25.22-126.6-58.08-158.1z"/><path d="m330.92 121.44-.7-.75c-4.66-4.28-4.3-4.03-4.3-4.03s8.15-41.09 1.62-60.51C317.29 25.12 256.06 4.32 243.78 1.9c0-.03-7.47-1.52-7.94-1.52 0 0-9.66-1.96-20.86 2.93-7.29 2.8-45.4 20.09-56.22 52.83-6.53 19.42 1.61 60.5 1.61 60.5s.36-.24-4.3 4.04l-.7.75c-3.16 3.59-2.38 14.8 1.07 26.48 3.13 11.7 7.21 14.84 8.19 17.58 9.9 46.5 44.33 86.2 79.43 86.2s67.7-39.7 77.6-86.2c.98-2.74 5.06-5.88 8.19-17.58 3.45-11.67 4.32-23.66 1.07-26.48z"/></svg>